<?xml version="1.0" encoding="UTF-8"?>
<svg id="Capa_1" data-name="Capa 1" xmlns="http://www.w3.org/2000/svg" viewBox="0 0 572 238.5">
  <path d="M413.35,98.37V39.27h-1.89s-7,5.42-15.41,5.42l.05,1.71c2.33,3.65,2.24,13.27,2.24,15.77l-.02,36.35c-.14,4.18-2.48,6.07-2.48,6.07v1.78s19.92,0,19.92,0v-1.78s-2.41-1.91-2.41-6.23Z"/>
  <path d="M69.96,22.98l-2.46,.02s-5.24-12.44-16.82-12.44H26.55V52.76h15.89c11.58,0,12.42-6.4,12.42-6.4l2.46,.02v15.7l-2.46,.02s-.84-6.26-12.42-6.26h-15.89v42.22c0,4.62,2.77,6.67,2.77,6.67v1.9s-22.98,0-22.98,0v-1.9s2.71-2.02,2.87-6.5V15.9c-.16-4.47-2.86-6.5-2.86-6.5v-1.9s60.86,0,60.86,0l2.75,15.48Z"/>
  <path d="M98.48,106.5h-22.99v-1.9s2.71-2.02,2.87-6.49l.02-66.12c0-2.68,.1-12.96-2.58-16.86l-.06-1.83c9.7,0,17.77-5.8,17.77-5.8h2.17V97.94c.01,4.62,2.78,6.66,2.78,6.66v1.9Z"/>
  <path d="M151.45,96.82v-3.26c-3.62,7.12-11.13,13.14-18.91,13.14-8.92,0-22.43-5.14-22.43-22.46l.12-26.69c0-3.59-.16-12.08-2.58-15.54l-.06-1.8c9.7,0,17.77-5.7,17.77-5.7h2.17v51.41c-.01,5.91,.92,15.65,8.78,15.65,9.37,0,15.16-16.51,15.16-24.1v-20.7c-.03-3.93-.32-11.52-2.57-14.74l-.06-1.8c9.7,0,17.76-5.7,17.76-5.7h2.17l.02,62.15c0,4.54,2.77,6.55,2.77,6.55v1.87s-22.98,0-22.98,0v-1.87s2.71-1.99,2.87-6.39Z"/>
  <path d="M323.76,71.13h-49.55c.76,2.09,1.67,4.23,2.77,6.4,4.15,8.25,12.62,20.15,26.77,20.15,7.01,0,13.14-5.98,15.67-11.63l3.05,1.91c-1.5,2.86-3.25,5.58-5.57,7.99-6.41,6.71-14.9,10.13-25.33,10.13s-18.78-3.43-25.33-10.13c-6.41-6.85-9.69-15.5-9.69-25.78s3.49-18.58,9.69-25.48c9.29-10.35,21.36-10.28,23.44-10.28,37.15,0,34.09,36.71,34.1,36.71Zm-16.99-2.9c0-25.59-15.54-34.16-26.64-28.57-6.46,3.25-10.89,14.91-6.79,28.57h33.43Z"/>
  <path d="M387.92,46.32c.8,6.85-7.64,9.78-11.49,4.69-3.89-5.13-1.53-12.44-7.6-12.44-9.37,0-16.19,17.49-16.19,25.06v34.47c0,4.53,2.78,6.53,2.78,6.53v1.86s-22.98,0-22.98,0v-1.86s2.71-1.98,2.87-6.36l.02-38.13c0-2.62,.1-12.71-2.58-16.54l-.06-1.79c9.7,0,17.77-5.69,17.77-5.69h2.17v11.45c3.62-7.11,11.14-13.12,18.93-13.12,7.3,0,15.41,3.75,16.36,11.86Z"/>
  <path d="M470.92,98.28l.02-43.08c0-5.89-.93-15.61-8.79-15.61-9.37,0-15.16,16.47-15.16,24.04v34.47c0,4.53,2.78,6.53,2.78,6.53v1.86s-22.98,0-22.98,0v-1.86s2.71-1.98,2.87-6.36l.02-38.13c0-2.62,.1-12.71-2.58-16.54l-.06-1.79c9.7,0,17.76-5.69,17.76-5.69h2.17v11.46c3.62-7.11,11.14-13.12,18.93-13.12,8.92,0,22.43,5.13,22.43,22.4l-.1,41.24c0,4.53,2.77,6.53,2.77,6.53v1.86s-22.98,0-22.98,0v-1.86s2.71-1.98,2.88-6.36Z"/>
  <path d="M564.76,103.29v1.83h-20.83s.18-11.73,.17-11.81c-6.19,8.57-13.54,12.76-23.19,12.76-12.1,0-19.92-5.42-21.22-16.38-1.26-10.65,4.71-19.93,15.56-22.28,15.5-3.36,29.4-1.05,29.4-16.77,0-5.74-2.23-13.86-10.15-13.86s-12.69,8.83-14.41,15.89c-1.3,4.61-4.6,8.72-10.96,7.54-3.68-.68-7.42-2.95-6.36-8.99,2.13-12.12,19.65-16.75,30.26-16.75,16.65,0,28.09,4.21,28.09,13.2s-12.69,14.15-17.8,16.66c-12.27,6.02-31.82,11.55-29.23,25.58,1.17,6.34,6.6,11.03,14.26,10.71,8.75-.37,15.39-8.17,15.39-16.94v-15.05c5.19-2.31,15.05-5.91,17.51-10.78l.16,34.47c0,7.6,3.37,10.95,3.37,10.96Z"/>
  <path d="M214.97,26.7v-5.89h-12.32V7.5h-1.88s-11.42,16.03-19.84,16.03v2.73h6.72l-.04,16.54c.09,0,.07,29.45-.03,29.44l-.03,15.03c0,20,11.51,18.95,18.36,18.95,1.97,0,4.99-.51,6.84-1.34l-.25-2.52c-.72,.26-1.45,.43-2.23,.43-6.82,0-7.62-8.97-7.62-14.42v-4.06c.13,.03,.13-48.18,0-48.17v-9.45h12.32Z"/>
  <path d="M252.89,26.73v-5.9h-12.32V7.5h-1.88s-11.42,16.06-19.84,16.06v2.73h6.72l-.04,16.57c.09,0,.07,29.5-.03,29.5l-.03,15.06c0,20.03,11.51,18.98,18.36,18.98,1.97,0,4.99-.51,6.84-1.35l-.25-2.53c-.72,.26-1.45,.43-2.23,.43-6.82,0-7.62-8.99-7.62-14.45v-4.06c.13,.03,.13-48.26,0-48.25v-9.47h12.32Z"/>
  <ellipse cx="406.05" cy="29" rx="7.25" ry="7.5"/>
  <path d="M175.34,199.68c0,8.68-3.52,15.73-10.44,21.29-6.92,5.57-15.73,8.28-26.45,8.28-23.86,0-38.53-9.29-38.53-9.29v-17.33l2.05-.02c4.55,9.42,15.94,23.78,36.09,23.78,21.65,0,25.09-13.02,25.09-18.59,0-14.03-18.72-17.63-21.02-18.31l-10.17-2.85-10.04-2.71c-21.3-7.31-23.6-19.53-23.6-26.58s3.12-15.18,9.36-19.93,13.97-7.19,23.06-7.19c13.89,0,33.44,6.6,33.44,6.6l.19,17.5-2.65-.02c-4.11-6.43-13.68-21.14-30.17-21.14-13.02,0-21.3,9.39-21.3,17.94,0,4.34,2.58,7.87,5.29,10.18,1.49,1.08,3.53,2.17,6.38,3.39,2.85,1.08,5.43,1.89,7.46,2.57h0l8.95,2.31,7.59,2.03c3.94,1.09,29.44,6.14,29.44,28.07Z"/>
  <path d="M265.76,219.28v-3.25c-3.62,7.1-11.13,13.1-18.91,13.1-8.92,0-22.43-5.13-22.43-22.4l.12-26.62c0-3.58-.16-12.05-2.58-15.5l-.06-1.79c9.7,0,17.76-5.69,17.76-5.69h2.17v51.27c-.01,5.89,.92,15.6,8.78,15.6,9.37,0,15.16-16.46,15.16-24.04v-20.64c-.03-3.92-.32-11.49-2.57-14.7l-.06-1.79c9.7,0,17.77-5.69,17.77-5.69h2.17l.02,61.98c0,4.53,2.77,6.53,2.77,6.53v1.86s-22.98,0-22.98,0v-1.86s2.71-1.98,2.87-6.37Z"/>
  <path d="M364.01,228.38s-10.12-1.96-15.77-1.96c-8.54,0-17,2.71-23.28,2.71-9.77,0-30.01-2.33-30.01-35.79s20.11-37.16,29.59-37.16c8.17,0,14.58,3.61,19.39,8.72v-10.47c0-2.66,.1-12.86-2.58-16.74l-.06-1.82c9.7,0,17.76-5.76,17.76-5.76h2.17v89.76c0,4.58,2.78,6.61,2.78,6.61v1.88Zm-20.07-50.39c0-9.49-5.83-17.52-14.14-17.52-12.98,0-16.76,13.17-16.76,32.88s2.47,32.8,15.45,32.8c11.55,0,15.45-10.35,15.45-17.69v-30.46Z"/>
  <path d="M475.38,192.82c0,10.28-3.28,18.93-9.83,25.78-6.41,6.71-14.9,10.13-25.33,10.13s-18.78-3.43-25.33-10.13c-6.41-6.85-9.69-15.5-9.69-25.78s3.28-18.78,9.69-25.48c6.56-6.86,15.05-10.28,25.33-10.28s18.78,3.42,25.33,10.28c6.56,6.71,9.83,15.2,9.83,25.48Zm-20.64-7.3c-8.3-16.5-19.51-27.33-29.53-22.29-9.7,4.88-8.56,19.11,.42,36.94,4.15,8.25,17,29.11,29.63,22.75,13.43-6.76,3.63-29.15-.52-37.4Z"/>
  <path d="M215.3,149.35v-5.89h-12.32v-13.32h-1.88s-11.42,16.05-19.84,16.05v2.73h6.72l-.04,16.56c.09,0,.07,29.47-.03,29.47l-.03,15.04c0,20.01,11.51,18.96,18.36,18.96,1.97,0,4.99-.51,6.84-1.34l-.25-2.52c-.72,.26-1.45,.43-2.23,.43-6.82,0-7.62-8.98-7.62-14.43v-4.06c.13,.03,.13-48.22,0-48.21v-9.46h12.32Z"/>
  <path d="M395.15,220.96v-60.35h-1.89s-7,5.54-15.41,5.54l.05,1.75c2.33,3.73,2.24,13.55,2.24,16.1l-.02,37.12c-.14,4.27-2.48,6.2-2.48,6.2v1.81s19.92,0,19.92,0v-1.81s-2.41-1.95-2.41-6.36Z"/>
  <ellipse cx="387.86" cy="150.33" rx="7.25" ry="7.5"/>
</svg>